<?xml version="1.0" standalone="no"?>
<!DOCTYPE svg PUBLIC "-//W3C//DTD SVG 1.0//EN" "http://www.w3.org/TR/2001/REC-SVG-20010904/DTD/svg10.dtd">
<svg xmlns="http://www.w3.org/2000/svg" xmlns:xlink="http://www.w3.org/1999/xlink" id="body_1" width="192" height="40">

<g transform="matrix(0.22222224 0 0 0.22222224 0.33333334 -0)">
    <path d="M308.443 42.0962C 279.781 42.0962 256.552 65.4303 256.552 94.2117C 256.552 122.993 279.781 146.327 308.443 146.327C 337.104 146.327 360.324 122.993 360.324 94.2117C 360.324 65.4303 337.095 42.0962 308.443 42.0962zM308.443 126.913C 290.458 126.913 275.888 112.268 275.888 94.2117C 275.888 76.1552 290.458 61.51 308.443 61.51C 326.427 61.51 340.998 76.1552 340.998 94.2117C 340.998 112.268 326.418 126.913 308.443 126.913z" stroke="none" fill="#000000" fill-rule="nonzero" />
    <path d="M808.12 42.0962C 779.459 42.0962 756.229 65.4303 756.229 94.2117C 756.229 122.993 779.459 146.327 808.12 146.327C 836.781 146.327 860.002 122.993 860.002 94.2117C 860.002 65.4303 836.772 42.0962 808.12 42.0962zM808.12 126.913C 790.136 126.913 775.565 112.268 775.565 94.2117C 775.565 76.1552 790.136 61.51 808.12 61.51C 826.104 61.51 840.675 76.1552 840.675 94.2117C 840.675 112.268 826.095 126.913 808.12 126.913z" stroke="none" fill="#000000" fill-rule="nonzero" />
    <path d="M726.412 0L726.412 53.6247C 717.513 46.4093 706.188 42.0871 693.857 42.0871C 665.205 42.0871 641.976 65.4213 641.976 94.2116C 641.976 123.002 665.205 146.327 693.857 146.327C 706.188 146.327 717.513 142.005 726.412 134.79L726.412 134.79L726.412 146.327L745.739 146.327L745.739 0L726.412 0zM693.857 126.904C 675.882 126.904 661.302 112.268 661.302 94.2116C 661.302 76.1551 675.882 61.5099 693.857 61.5099C 711.833 61.5099 726.412 76.1462 726.412 94.2116C 726.412 112.277 711.833 126.904 693.857 126.904z" stroke="none" fill="#000000" fill-rule="nonzero" />
    <path d="M517.454 84.174L517.454 146.327L498.119 146.327C 498.119 146.327 498.261 85.0224 498.261 84.174C 498.261 83.8079 498.252 83.4418 498.234 83.0757C 497.665 71.2345 487.931 61.8133 475.991 61.8133C 464.052 61.8133 454.7 70.8773 453.802 82.4059C 453.758 82.9864 453.731 83.5757 453.731 84.174L453.731 84.174L453.731 146.327L434.395 146.327C 434.395 146.327 434.538 85.0224 434.538 84.174C 434.538 83.8079 434.547 83.4418 434.555 83.0757L434.555 83.0757L434.511 83.0757C 433.942 71.2077 424.181 61.7597 412.215 61.7597C 400.249 61.7597 391.092 70.6451 390.008 81.9951C 389.937 82.7095 389.901 83.4418 389.901 84.174C 389.901 84.9063 390.008 146.327 390.008 146.327L390.008 146.327L370.681 146.327L370.681 42.0869L390.008 42.0869L390.008 48.8737C 396.435 44.7748 404.063 42.3995 412.251 42.3995C 425.097 42.3995 436.582 48.2486 444.219 57.4376C 451.82 48.329 463.234 42.5334 475.991 42.5334C 498.527 42.5334 516.859 60.5899 517.436 83.0757C 517.445 83.4418 517.454 83.8079 517.454 84.174z" stroke="none" fill="#000000" fill-rule="nonzero" />
    <path d="M630.961 102.498C 631.388 99.8016 631.61 97.0333 631.61 94.2114C 631.61 90.3893 631.201 86.6655 630.419 83.0846C 625.351 59.6433 604.567 42.0869 579.719 42.0869C 554.872 42.0869 534.096 59.6433 529.029 83.0846C 528.247 86.6655 527.838 90.3893 527.838 94.2114C 527.838 97.0333 528.06 99.8016 528.495 102.498C 532.443 127.342 553.876 146.327 579.719 146.327C 597.81 146.327 613.741 137.022 623.022 122.921L623.022 122.921L608.896 108.723C 603.58 119.501 592.512 126.913 579.719 126.913C 564.598 126.913 551.876 116.545 548.222 102.498L548.222 102.498L630.961 102.498zM579.719 61.5097C 593.81 61.5097 605.811 70.5022 610.345 83.0846L610.345 83.0846L549.094 83.0846C 553.627 70.5022 565.629 61.5097 579.719 61.5097z" stroke="none" fill="#000000" fill-rule="nonzero" />
    <path d="M57.0374 85.0541L37.4489 78.8169C 24.6127 74.7297 17.5265 60.9656 21.6363 48.0583C 23.693 41.599 28.1538 36.5921 33.7072 33.6994C 39.2649 30.8161 45.9088 30.0556 52.3246 32.0985L52.3246 32.0985L136.37 58.8598L57.0374 85.0541zM179.534 51.8765L58.3169 13.2793C 46.7225 9.58746 34.7087 10.9647 24.6828 16.1765C 14.6559 21.3948 6.59945 30.4438 2.89127 42.0896C -3.9619 63.6125 6.43935 86.4959 26.3764 95.6685C 17.6984 100.016 10.9441 107.003 6.79084 115.298L6.79084 115.298L6.79042 115.299C 1.73414 125.408 0.521436 137.463 4.35342 149.069C 12.0147 172.272 36.9604 184.914 60.0804 177.28L60.0804 177.28L182.677 136.801C 194.239 132.984 203.143 124.823 208.209 114.719L208.209 114.719L208.21 114.717C 213.266 104.608 214.481 92.5598 210.649 80.9538C 205.724 66.0384 193.662 55.4871 179.534 51.8765zM57.7101 15.185C 46.6438 11.6614 35.1801 12.9738 25.6061 17.9506C 16.0299 22.9344 8.33878 31.5734 4.79706 42.6964C 1.17471 54.0727 2.59989 65.8432 7.82001 75.5712C 2.59987 65.8431 1.17463 54.0727 4.79699 42.6964C 8.33871 31.5734 16.0299 22.9343 25.6061 17.9506C 35.1801 12.9738 46.6438 11.6613 57.7101 15.185zM190.612 105.827C 187.804 111.424 182.877 115.936 176.484 118.047L176.484 118.047L53.8881 158.526C 41.0962 162.75 27.2809 155.764 23.0339 142.901C 20.9085 136.464 21.582 129.792 24.381 124.191C 27.1889 118.594 32.1221 114.08 38.5157 111.969L38.5157 111.969L161.112 71.4897C 173.897 67.2683 187.719 74.252 191.968 87.1217C 194.092 93.552 193.418 100.224 190.612 105.827z" stroke="none" fill="#000000" fill-rule="nonzero" />
</g>
</svg>